<?xml version="1.0" encoding="utf-8"?>

<!DOCTYPE svg PUBLIC "-//W3C//DTD SVG 1.1//EN" "http://www.w3.org/Graphics/SVG/1.1/DTD/svg11.dtd">
<svg version="1.1" id="Layer_1" xmlns="http://www.w3.org/2000/svg" xmlns:xlink="http://www.w3.org/1999/xlink" x="0px" y="0px"
	 viewBox="0 0 1686.0852 1686.0852" enable-background="new 0 0 1686.0852 1686.0852" xml:space="preserve">
<g fill="#F02D3A">
	<path d="M843.0426,285.364l38.4846,92.91l-38.4846,15.9408L804.558,378.274L843.0426,285.364z M843.0426,494.5876l159.6453-66.1272
		L843.0426,43.0426L683.3973,428.4604L843.0426,494.5876z"/>
	<path d="M1237.3809,448.7043l-38.4845,92.9099l-38.4846-15.9408l-15.9408-38.4846L1237.3809,448.7043z M1089.4375,596.6478
		l159.6453,66.1272l159.6453-385.4178l-385.4178,159.6453L1089.4375,596.6478z"/>
	<path d="M1400.7212,843.0426l-92.91,38.4846l-15.9408-38.4846l15.9408-38.4846L1400.7212,843.0426z M1191.4976,843.0426
		l66.1272,159.6453l385.4178-159.6453l-385.4178-159.6453L1191.4976,843.0426z"/>
	<path d="M1237.3809,1237.3809l-92.9099-38.4845l15.9408-38.4846l38.4846-15.9408L1237.3809,1237.3809z M1089.4375,1089.4375
		l-66.1273,159.6453l385.4178,159.6453l-159.6453-385.4178L1089.4375,1089.4375z"/>
	<path d="M843.0426,1400.7212l-38.4846-92.91l38.4846-15.9408l38.4846,15.9408L843.0426,1400.7212z M843.0426,1191.4976
		l-159.6453,66.1272l159.6453,385.4178l159.6453-385.4178L843.0426,1191.4976z"/>
	<path d="M448.7043,1237.3809l38.4846-92.9099l38.4846,15.9408l15.9408,38.4846L448.7043,1237.3809z M596.6478,1089.4375
		l-159.6453-66.1273L277.3572,1408.728l385.4178-159.6453L596.6478,1089.4375z"/>
	<path d="M285.364,843.0426l92.91-38.4846l15.9408,38.4846l-15.9408,38.4846L285.364,843.0426z M494.5876,843.0426
		l-66.1272-159.6453L43.0426,843.0426l385.4178,159.6453L494.5876,843.0426z"/>
	<path d="M448.7043,448.7043l92.9099,38.4846l-15.9408,38.4846l-38.4846,15.9408L448.7043,448.7043z M596.6478,596.6478
		l66.1272-159.6453L277.3572,277.3572L437.0025,662.775L596.6478,596.6478z"/>
</g>
</svg>
